<?xml version="1.0" encoding="UTF-8"?>
<svg id="Capa_2" data-name="Capa 2" xmlns="http://www.w3.org/2000/svg" viewBox="0 0 269.9 113.55">
  <defs>
    <style>
      .cls-1 {
        letter-spacing: .15em;
      }

      .cls-2 {
        letter-spacing: .15em;
      }

      .cls-3 {
        letter-spacing: .15em;
      }

      .cls-4, .cls-5 {
        fill: #272b49;
      }

      .cls-6 {
        letter-spacing: 0em;
      }

      .cls-7 {
        letter-spacing: .15em;
      }

      .cls-5 {
        font-family: Lato-Regular, Lato;
        font-size: 22.4px;
      }

      .cls-8 {
        letter-spacing: .15em;
      }
    </style>
  </defs>
  <g id="Capa_1-2" data-name="Capa 1">
    <g>
      <path class="cls-4" d="M0,2.22h40.63v2.69c-8.4,0-10.45,5.65-6.18,16.95l13.47,35.57,14.65-35.57c4.65-11.3,2.32-16.95-6.97-16.95v-2.69h40.48v2.69c-8.87,0-11.14,5.65-6.81,16.95l13.62,35.57,14.42-35.57c4.59-11.25,3.04-16.9-4.67-16.95v-2.69h24.47v2.69c-6.12,0-11.51,5.65-16.16,16.95l-24.71,60.2h-4.99l-24.48-62.02-25.43,62.02h-4.83L13.86,21.86C9.64,10.61,5.02,4.96,0,4.91v-2.69Z"/>
      <path class="cls-4" d="M197.39,10.54c6.65,7.02,10.24,16.4,10.77,28.12h-57.27c-.69,10.14,1.58,18.85,6.81,26.14,5.23,7.23,11.75,10.75,19.57,10.54,6.76-.16,12.44-2.56,17.03-7.21,4.59-4.65,8.03-10.77,10.3-18.38h2.54c-2.17,10.61-6.73,18.93-13.7,24.95-6.92,5.97-15.16,8.95-24.71,8.95-10.56,0-19.57-3.96-27.01-11.88-7.29-7.81-10.93-17.53-10.93-29.15s3.64-22.1,10.93-30.18c7.39-8.29,16.9-12.44,28.51-12.44s20.62,3.51,27.17,10.54M161.27,7.05c-2.43,2.17-4.33,4.94-5.7,8.32-1.37,3.27-2.4,6.57-3.09,9.9-.69,3.22-1.14,6.39-1.35,9.51h36.67c.16-3.96-.29-8.21-1.35-12.75-.95-4.6-2.93-8.85-5.94-12.75-2.96-3.96-6.52-5.86-10.69-5.7-3.17.11-6.02,1.27-8.55,3.48"/>
      <path class="cls-4" d="M251.41,2.3c3.38,1.37,5.65,1.9,6.81,1.58,1.21-.32,1.74-1.11,1.59-2.38h2.69l2.53,23.76h-2.53c-1.01-6.6-3.7-11.83-8.08-15.68-1.69-1.69-3.99-3.01-6.89-3.96-2.38-.95-5.02-1.4-7.92-1.35-4.01-.05-7.42,1.11-10.22,3.49-2.22,1.8-3.48,4.23-3.8,7.29-.21,2.85.74,5.39,2.85,7.6,1.79,1.74,6.57,4.09,14.34,7.05,7.23,2.43,12.36,4.54,15.37,6.34,8.24,5.02,12.14,12.3,11.72,21.86-.37,7.34-3.14,13.65-8.32,18.93-5.28,5.23-12.65,7.37-22.1,6.42-3.59-.42-6.84-1.14-9.74-2.14-6.39-2.38-10.27-3.3-11.64-2.77-1.32.48-2.01,1.72-2.06,3.72h-2.61l-.48-25.35h2.53c.37,2.8.98,5.26,1.82,7.37.84,1.95,2.43,4.04,4.75,6.26,4.91,4.59,10.77,7.42,17.58,8.48,5.97.85,10.77.08,14.42-2.3,3.33-2.22,5.1-5.12,5.31-8.71.48-3.54-.32-6.6-2.38-9.19-1.48-1.79-3.86-3.41-7.13-4.83-4.38-1.9-8.37-3.41-11.96-4.52-4.59-1.69-7.97-2.98-10.14-3.88-9.56-4.75-14.23-12.15-14.02-22.18.21-6.6,2.48-12.09,6.81-16.48,4.65-4.44,10.96-6.63,18.93-6.57,4.01,0,8,.71,11.96,2.14"/>
      <text class="cls-5" transform="translate(15.37 107.54)"><tspan class="cls-3" x="0" y="0">Agenc</tspan><tspan class="cls-1" x="78.63" y="0">i</tspan><tspan class="cls-7" x="87.34" y="0">a de </tspan><tspan class="cls-1" x="151.1" y="0">S</tspan><tspan class="cls-2" x="166.59" y="0">egu</tspan><tspan class="cls-8" x="212.63" y="0">r</tspan><tspan class="cls-7" x="224.12" y="0">o</tspan><tspan class="cls-6" x="240.18" y="0">s</tspan></text>
    </g>
  </g>
</svg>